<svg viewBox="0 0 256 256" xmlns="http://www.w3.org/2000/svg">
<path fill="#25D366" d="M128 0C57.31 0 0 57.31 0 128c0 22.61 5.93 44.83 17.18 64.34L0 256l65.27-17c18.85 10.27 39.99 15.66 61.46 15.66h.27C197.69 254.66 255 197.34 255 126.66 255 91.95 241.61 59.62 217.27 35.27 192.93 10.93 160.61 0 128 0z"/>
<path fill="#FFFFFF" d="M128 234.66h-.21c-19.16 0-37.99-5.15-54.42-14.88l-3.91-2.32-40.5 10.62 10.81-39.49-2.55-4.05c-10.7-17.02-16.34-36.66-16.34-56.85 0-58.81 47.85-106.66 106.71-106.66 28.49 0 55.27 11.11 75.42 31.27 20.15 20.16 31.24 46.95 31.22 75.43-.02 58.82-47.87 106.66-106.66 106.66zm58.5-79.87c-3.21-1.61-18.99-9.37-21.93-10.44-2.94-1.07-5.08-1.61-7.22 1.61-2.14 3.21-8.29 10.44-10.16 12.58-1.87 2.14-3.74 2.41-6.95.8-3.21-1.61-13.55-4.99-25.81-15.93-9.54-8.51-15.98-19.02-17.85-22.23-1.87-3.21-.2-4.95 1.41-6.55 1.45-1.44 3.21-3.74 4.82-5.62 1.61-1.87 2.14-3.21 3.21-5.35 1.07-2.14.54-4.01-.27-5.62-.8-1.61-7.22-17.4-9.89-23.83-2.61-6.26-5.26-5.41-7.22-5.51-1.87-.09-4.01-.11-6.15-.11-2.14 0-5.62.8-8.56 4.01-2.94 3.21-11.23 10.97-11.23 26.76 0 15.79 11.5 31.04 13.1 33.18 1.61 2.14 22.62 34.55 54.81 48.45 7.66 3.31 13.64 5.28 18.3 6.76 7.69 2.44 14.69 2.1 20.22 1.27 6.17-.92 18.99-7.76 21.66-15.26 2.67-7.49 2.67-13.91 1.87-15.26-.8-1.34-2.94-2.14-6.15-3.74z"/>
</svg>
